<svg width="416" height="270" viewBox="0 0 416 270" fill="none" xmlns="http://www.w3.org/2000/svg">
<g id="HTV Hi-fi Landing">
<g id="NEW">
<g id="Group 264">
<g id="Vector" opacity="0.6">
<path d="M147.84 183.868C157.508 196.7 177.204 223.284 178.639 226.963L193.478 222.553L164.713 155.382L147.84 183.868Z" fill="url(#paint1_linear_1_3)"/>
<path d="M184.08 163.052L185.191 199.355L185.525 217.829L199.12 223.9L205.393 177.072L184.08 163.052Z" fill="url(#paint2_linear_1_3)"/>
</g>
<g id="Vector_2" opacity="0.6">
<path d="M283.907 173.177C279.276 188.148 269.965 219.07 269.767 222.994L256.007 222.862L261.783 150.525L283.907 173.177Z" fill="url(#paint3_linear_1_3)"/>
<path d="M247.528 163.223L256.608 198.334L261.425 216.137L251.609 225.71L233.382 182.547L247.528 163.223Z" fill="url(#paint4_linear_1_3)"/>
</g>
<path id="Vector_3" opacity="0.6" d="M180.286 92.8352C182.296 104.625 186.647 128.802 187.977 131.192L177.041 140.596L154.198 95.0652L180.286 92.8352Z" fill="url(#paint5_linear_1_3)"/>
<path id="Vector_4" opacity="0.6" d="M26.1646 60.6977C23.3942 71.4523 17.5 93.4682 16.0857 95.4954L25.463 106.157L50.0987 67.131L26.1646 60.6977Z" fill="url(#paint6_linear_1_3)"/>
<path id="Vector_5" opacity="0.6" d="M379.844 171.359C377.772 179.404 373.363 195.872 372.305 197.389L379.32 205.364L397.748 176.171L379.844 171.359Z" fill="url(#paint7_linear_1_3)"/>
<path id="Vector_6" opacity="0.6" d="M212.511 183.749C216.697 192.231 225.124 209.718 225.337 211.813L237.314 213.486L231.536 174.605L212.511 183.749Z" fill="url(#paint8_linear_1_3)"/>
<g id="Vector_7" opacity="0.6">
<path d="M277.091 127.604C284.673 137.706 300.119 158.632 301.246 161.528L312.87 158.065L290.298 105.2L277.091 127.604Z" fill="url(#paint9_linear_1_3)"/>
<path d="M305.478 111.244L306.366 139.808L306.637 154.344L317.292 159.127L322.184 122.287L305.478 111.244Z" fill="url(#paint10_linear_1_3)"/>
</g>
<g id="Vector_8" opacity="0.6">
<path d="M33.239 160.456C40.8211 170.557 56.2669 191.483 57.3939 194.379L69.0185 190.916L46.4458 138.051L33.239 160.456Z" fill="url(#paint11_linear_1_3)"/>
<path d="M61.6257 144.096L62.5142 172.66L62.7849 187.195L73.4406 191.979L78.3324 155.138L61.6257 144.096Z" fill="url(#paint12_linear_1_3)"/>
<path d="M83.5041 154.364L83.7868 178.878L83.7498 191.357L94.2709 195.24L98.1578 154.469L83.5041 154.364Z" fill="url(#paint13_linear_1_3)"/>
</g>
</g>
</g>
</g>
<defs>
<linearGradient id="paint0_linear_1_3" x1="674" y1="-100" x2="-523.029" y2="9859.27" gradientUnits="userSpaceOnUse">
<stop stop-color="#040142"/>
<stop offset="1" stop-color="#C066BE"/>
</linearGradient>
<linearGradient id="paint1_linear_1_3" x1="168.559" y1="136.693" x2="181.986" y2="226.462" gradientUnits="userSpaceOnUse">
<stop stop-color="#4242C8"/>
<stop offset="1" stop-color="#3F3FC0" stop-opacity="0"/>
</linearGradient>
<linearGradient id="paint2_linear_1_3" x1="168.559" y1="136.693" x2="181.986" y2="226.462" gradientUnits="userSpaceOnUse">
<stop stop-color="#4242C8"/>
<stop offset="1" stop-color="#3F3FC0" stop-opacity="0"/>
</linearGradient>
<linearGradient id="paint3_linear_1_3" x1="253.373" y1="133.668" x2="266.8" y2="223.438" gradientUnits="userSpaceOnUse">
<stop stop-color="#4242C8"/>
<stop offset="1" stop-color="#3F3FC0" stop-opacity="0"/>
</linearGradient>
<linearGradient id="paint4_linear_1_3" x1="253.373" y1="133.668" x2="266.8" y2="223.438" gradientUnits="userSpaceOnUse">
<stop stop-color="#4242C8"/>
<stop offset="1" stop-color="#3F3FC0" stop-opacity="0"/>
</linearGradient>
<linearGradient id="paint5_linear_1_3" x1="141.157" y1="91.1764" x2="185.798" y2="133.491" gradientUnits="userSpaceOnUse">
<stop stop-color="#4242C8"/>
<stop offset="1" stop-color="#3F3FC0" stop-opacity="0"/>
</linearGradient>
<linearGradient id="paint6_linear_1_3" x1="62.4507" y1="65.6409" x2="17.9214" y2="98.0199" gradientUnits="userSpaceOnUse">
<stop stop-color="#4242C8"/>
<stop offset="1" stop-color="#3F3FC0" stop-opacity="0"/>
</linearGradient>
<linearGradient id="paint7_linear_1_3" x1="406.988" y1="175.057" x2="373.678" y2="199.277" gradientUnits="userSpaceOnUse">
<stop stop-color="#4242C8"/>
<stop offset="1" stop-color="#3F3FC0" stop-opacity="0"/>
</linearGradient>
<linearGradient id="paint8_linear_1_3" x1="238.682" y1="166.781" x2="227.924" y2="212.423" gradientUnits="userSpaceOnUse">
<stop stop-color="#4242C8"/>
<stop offset="1" stop-color="#3F3FC0" stop-opacity="0"/>
</linearGradient>
<linearGradient id="paint9_linear_1_3" x1="293.302" y1="90.4973" x2="303.868" y2="161.135" gradientUnits="userSpaceOnUse">
<stop stop-color="#4242C8"/>
<stop offset="1" stop-color="#3F3FC0" stop-opacity="0"/>
</linearGradient>
<linearGradient id="paint10_linear_1_3" x1="293.302" y1="90.4973" x2="303.868" y2="161.135" gradientUnits="userSpaceOnUse">
<stop stop-color="#4242C8"/>
<stop offset="1" stop-color="#3F3FC0" stop-opacity="0"/>
</linearGradient>
<linearGradient id="paint11_linear_1_3" x1="49.4504" y1="123.348" x2="60.016" y2="193.987" gradientUnits="userSpaceOnUse">
<stop stop-color="#4242C8"/>
<stop offset="1" stop-color="#3F3FC0" stop-opacity="0"/>
</linearGradient>
<linearGradient id="paint12_linear_1_3" x1="49.4504" y1="123.348" x2="60.016" y2="193.987" gradientUnits="userSpaceOnUse">
<stop stop-color="#4242C8"/>
<stop offset="1" stop-color="#3F3FC0" stop-opacity="0"/>
</linearGradient>
<linearGradient id="paint13_linear_1_3" x1="49.4504" y1="123.348" x2="60.016" y2="193.987" gradientUnits="userSpaceOnUse">
<stop stop-color="#4242C8"/>
<stop offset="1" stop-color="#3F3FC0" stop-opacity="0"/>
</linearGradient>
</defs>
</svg>
