<svg width="73" height="124" viewBox="0 0 73 124" fill="none" xmlns="http://www.w3.org/2000/svg">
<path d="M3.42856 0H68.5712V33.8108L71.51 34.7909C72.1128 35.9971 72.0587 36.7828 72.0554 38.1312C72.0553 38.6217 72.0553 39.1121 72.0552 39.6174C72.0527 40.1483 72.0502 40.6792 72.0476 41.2261C72.0465 42.0398 72.0465 42.0398 72.0454 42.8698C72.0427 44.6074 72.0366 46.3449 72.0304 48.0825C72.0279 49.2584 72.0257 50.4343 72.0237 51.6102C72.0183 54.4973 72.0101 57.3844 71.9998 60.2715L68.0814 61.7415L67.5916 112.213C61.8457 114.512 56.0974 116.78 50.3065 118.961C49.2927 119.344 48.2803 119.732 47.2692 120.123C45.7877 120.695 44.302 121.255 42.8149 121.812C42.3679 121.988 41.9209 122.163 41.4603 122.344C36.1035 124.317 32.1529 122.743 26.9444 120.853C26.3465 120.64 25.7486 120.426 25.1326 120.207C23.8747 119.757 22.6181 119.305 21.3624 118.85C19.7565 118.268 18.148 117.694 16.5387 117.122C14.9958 116.572 13.4549 116.017 11.9139 115.463C11.3378 115.258 10.7619 115.052 10.1684 114.841C9.63361 114.646 9.09881 114.452 8.54784 114.252C8.07823 114.082 7.60858 113.913 7.12474 113.738C4.75282 112.701 4.75284 112.701 3.91835 111.723C3.62819 110.125 3.67149 108.542 3.69594 106.923C3.69565 106.43 3.6954 105.938 3.6951 105.43C3.69647 103.8 3.71169 102.169 3.72703 100.539C3.73068 99.4092 3.73344 98.2797 3.7354 97.1502C3.74288 94.1751 3.76217 91.2003 3.78383 88.2253C3.80386 85.1905 3.81282 82.1556 3.82269 79.1207C3.84371 73.1642 3.87716 67.2079 3.91835 61.2515L0 60.7615V35.2809L2.93877 33.8108L3.42856 0Z" fill="#F4F3F4"/>
<path d="M12.7352 8.81975L20.2658 8.7585C21.0496 8.74958 21.8334 8.74066 22.6409 8.73147C23.562 8.72779 23.562 8.72779 24.5018 8.72405C25.1328 8.71892 25.7637 8.71378 26.4138 8.7085C27.9189 8.81975 27.9189 8.81975 28.8984 9.79978C29.0096 11.2605 29.0096 11.2605 28.9941 13.1112C28.9927 13.4361 28.9913 13.761 28.9899 14.0957C28.9844 15.1343 28.9721 16.1727 28.9597 17.2112C28.9548 17.915 28.9503 18.6187 28.9463 19.3225C28.9355 21.0484 28.9186 22.7743 28.8984 24.5001H24.9801V12.2498H22.5311V24.5001H19.1026V12.2498H16.1638V24.5001H12.7352V8.81975Z" fill="#E73528"/>
<path d="M45.55 8.32935H49.9582V14.6995H55.3459V8.32935H59.7541V24.9898H55.3459V18.6196H49.9582V24.9898H45.55V8.32935Z" fill="#F7BC35"/>
<path d="M27.4594 77.7817C28.0447 77.7798 28.0447 77.7798 28.6418 77.7778C29.0496 77.7816 29.4575 77.7854 29.8777 77.7893C30.2856 77.7855 30.6935 77.7817 31.1137 77.7778C31.5039 77.7791 31.8941 77.7804 32.2961 77.7817C32.6541 77.7828 33.0121 77.7839 33.3809 77.785C34.2859 77.9118 34.2859 77.9118 35.2655 78.8918C35.3922 80.0593 35.3922 80.0593 35.3956 81.5084C35.3975 82.2896 35.3975 82.2896 35.3994 83.0866C35.3956 83.6327 35.3918 84.1787 35.3879 84.7414C35.3917 85.2855 35.3955 85.8297 35.3994 86.3904C35.3981 86.9118 35.3969 87.4332 35.3956 87.9705C35.3945 88.4492 35.3934 88.928 35.3922 89.4212C35.2655 90.6521 35.2655 90.6521 34.2859 92.1222C33.3809 92.3046 33.3809 92.3046 32.2961 92.3002C31.9059 92.2999 31.5157 92.2996 31.1137 92.2992C30.5019 92.2874 30.5019 92.2874 29.8777 92.2753C29.2659 92.2777 29.2659 92.2777 28.6418 92.2801C25.6004 92.253 25.6004 92.253 24.49 91.1421C24.3633 89.9219 24.3633 89.9219 24.3599 88.4011C24.3586 87.856 24.3574 87.3109 24.3561 86.7493C24.3618 85.8918 24.3618 85.8918 24.3676 85.017C24.3638 84.4453 24.36 83.8737 24.3561 83.2847C24.3573 82.7396 24.3586 82.1945 24.3599 81.6328C24.361 81.131 24.3621 80.6291 24.3633 80.1121C24.5827 77.9996 25.5589 77.7875 27.4594 77.7817Z" fill="#15314E"/>
<path d="M50.9381 77.4219H61.2238V80.852H54.3667V83.302C54.7739 83.285 55.1811 83.2679 55.6007 83.2503C56.3991 83.2304 56.3991 83.2304 57.2136 83.2101C57.7421 83.1931 58.2705 83.176 58.815 83.1585C60.2442 83.302 60.2442 83.302 61.1568 83.859C61.9535 85.1654 61.9084 86.1923 61.8973 87.7121C61.901 88.2276 61.9048 88.743 61.9087 89.274C61.6862 90.8458 61.476 91.1785 60.2442 92.1222C59.2231 92.2891 59.2231 92.2891 58.065 92.2658C57.6499 92.2611 57.2347 92.2563 56.807 92.2514C56.1597 92.233 56.1597 92.233 55.4993 92.2141C55.0621 92.2075 54.6249 92.2009 54.1744 92.194C53.0953 92.1767 52.0169 92.1525 50.9381 92.1222V88.6922H58.7748V86.2421H50.9381V77.4219Z" fill="#1A3551"/>
<path d="M11.7542 77.9116C13.2848 77.8832 14.8153 77.8657 16.3461 77.8503C16.7817 77.8421 17.2174 77.8339 17.6662 77.8254C18.0829 77.8223 18.4996 77.8191 18.929 77.8158C19.5061 77.8081 19.5061 77.8081 20.0949 77.8003C21.0603 77.9116 21.0603 77.9116 22.0399 78.8916C22.1112 80.1605 22.1313 81.3621 22.1011 82.6279L22.0399 86.2418L14.693 86.7318V88.6918L22.0399 89.1818V92.1219H11.2644L11.1726 88.5387C11.1592 88.1683 11.1459 87.798 11.1321 87.4164C11.1151 86.0497 11.1297 85.0077 11.8155 83.807C13.1563 83.0692 14.2473 83.1608 15.7644 83.2098C16.2967 83.2231 16.8289 83.2363 17.3773 83.25C17.9882 83.2756 17.9882 83.2756 18.6114 83.3017V80.8516H11.7542V77.9116Z" fill="#15314E"/>
<path d="M38.2032 77.9116C39.7338 77.8832 41.2643 77.8657 42.7951 77.8503C43.2307 77.8421 43.6664 77.8339 44.1152 77.8254C44.5319 77.8223 44.9486 77.8191 45.378 77.8158C45.9551 77.8081 45.9551 77.8081 46.5439 77.8003C47.5093 77.9116 47.5093 77.9116 48.4889 78.8916C48.5602 80.1605 48.5803 81.3621 48.5501 82.6279L48.4889 86.2418L41.142 86.7318V88.6918L48.4889 89.1818V92.1219H37.7134L37.591 88.5387C37.5732 88.1683 37.5553 87.798 37.537 87.4164C37.5118 85.8986 37.528 84.9965 38.5094 83.807C39.9929 83.1626 41.1215 83.1572 42.7338 83.2098C43.5256 83.2297 43.5256 83.2297 44.3333 83.25C44.7349 83.2671 45.1364 83.2841 45.5502 83.3017L45.0604 81.3416L38.2032 80.8516V77.9116Z" fill="#14304D"/>
<path d="M31.3464 8.82031H35.7546V21.0706H43.1015V24.5007H31.3464V8.82031Z" fill="#2056A0"/>
<path d="M8.81645 45.5713C9.93188 45.6555 9.93188 45.6555 11.2348 45.9388C11.6635 46.0272 12.0922 46.1157 12.5339 46.2068C13.7144 46.5513 13.7144 46.5513 15.1838 47.5313C15.0455 48.563 14.9016 49.594 14.7552 50.6245C14.6757 51.1987 14.5961 51.7729 14.5141 52.3645C14.2042 53.9015 14.2042 53.9015 13.2246 55.3715C11.0966 55.0735 8.97538 54.7533 6.85727 54.3915C6.32156 52.4168 6.44711 51.112 7.01033 49.1545C7.20448 48.4543 7.20448 48.4543 7.40255 47.74C7.83686 46.5513 7.83686 46.5513 8.81645 45.5713Z" fill="#193450"/>
<path d="M49.0404 96.5011C49.5771 96.5055 50.1138 96.5099 50.6667 96.5145C51.0796 96.5202 51.4925 96.5258 51.918 96.5317C52.6454 97.9872 52.4913 99.3236 52.4996 100.942C52.5065 101.558 52.5135 102.175 52.5206 102.81C52.4078 104.372 52.4078 104.372 51.4282 105.352C50.1884 105.482 50.1884 105.482 48.7343 105.474L47.2802 105.482C46.0404 105.352 46.0404 105.352 45.0608 104.372C44.9898 103.107 44.9694 101.898 44.9996 100.636C45.004 100.289 45.0085 99.9433 45.013 99.5866C45.0246 98.7316 45.0421 97.8766 45.0608 97.0217C46.4149 96.3444 47.5324 96.485 49.0404 96.5011Z" fill="#1C3753"/>
<path d="M54.703 47.4697C55.4332 47.483 55.4332 47.483 56.1782 47.4965C56.55 47.5079 56.9219 47.5192 57.3051 47.531C58.4092 50.2558 58.5783 52.9596 58.7744 55.8612H56.3255V53.4111L53.8765 53.9011L53.3867 56.3512L50.9377 56.8412C50.6319 54.7375 50.3944 52.6581 50.3255 50.5323C50.3129 50.1697 50.3002 49.8071 50.2872 49.4336C50.3403 49.1291 50.3933 48.8247 50.4479 48.511C52.1235 47.3934 52.7411 47.4235 54.703 47.4697Z" fill="#1F3955"/>
<path d="M31.4072 96.5011C31.9439 96.5055 32.4805 96.5099 33.0335 96.5145C33.4464 96.5202 33.8593 96.5258 34.2847 96.5317C35.0655 98.094 34.8244 99.78 34.8051 101.493C34.8029 101.863 34.8007 102.232 34.7984 102.613C34.7927 103.526 34.7839 104.439 34.7745 105.352H32.8153L32.3256 102.902H29.8766L29.3868 105.352H27.4276V97.0217C28.7817 96.3444 29.8992 96.485 31.4072 96.5011Z" fill="#1E3954"/>
<path d="M54.3673 96.5315H56.8163L58.7755 100.452L59.2653 96.5315H61.7142V105.352H59.2653L56.8163 100.942L56.3265 105.352H54.3673V96.5315Z" fill="#213B56"/>
<path d="M18.6113 96.5315H25.4685V98.4915H21.0603V99.9616H24.9787V101.922H21.0603V103.392H25.4685V105.352C24.4175 105.365 23.3664 105.374 22.3154 105.382C21.7301 105.388 21.1448 105.394 20.5418 105.4C19.1011 105.352 19.1011 105.352 18.6113 104.862C18.5755 103.459 18.5661 102.068 18.5807 100.666C18.5829 100.271 18.5851 99.8758 18.5874 99.4687C18.5932 98.4896 18.602 97.5105 18.6113 96.5315Z" fill="#27405B"/>
<path d="M12.5395 96.437C13.0282 96.4484 13.5169 96.4598 14.0204 96.4715C14.7572 96.4847 14.7572 96.4847 15.5089 96.4983C15.8865 96.5096 16.264 96.521 16.653 96.5327V98.4928H12.2449V99.9628L14.1428 99.9016C15.2104 99.8671 15.2104 99.8671 16.1632 99.9628C17.1428 100.943 17.1428 100.943 17.2385 101.896C17.2066 102.885 17.1747 103.874 17.1428 104.863C15.7888 105.54 14.6712 105.4 13.1632 105.384C12.6266 105.379 12.0899 105.375 11.537 105.37C10.9176 105.362 10.9176 105.362 10.2857 105.353V103.393H15.1836V101.923H10.7755C10.0376 100.446 10.1987 99.1382 10.2857 97.5127C11.2653 96.5327 11.2653 96.5327 12.5395 96.437Z" fill="#223C57"/>
<path d="M38.9887 96.437C39.4773 96.4484 39.966 96.4598 40.4695 96.4715C41.2063 96.4847 41.2063 96.4847 41.958 96.4983C42.3356 96.5096 42.7132 96.521 43.1022 96.5327V98.4928H38.694V99.9628H42.6124C43.409 101.557 43.1583 103.095 43.1022 104.863C42.6124 105.353 42.6124 105.353 41.2788 105.401C40.739 105.395 40.1992 105.389 39.643 105.384C39.1019 105.379 38.5608 105.375 38.0033 105.37C37.3754 105.362 37.3754 105.362 36.7348 105.353V103.393H41.143V101.923L39.4899 101.953C37.7144 101.923 37.7144 101.923 36.7348 101.433C36.6392 98.466 36.6392 98.466 36.7348 97.5127C37.7144 96.5327 37.7144 96.5327 38.9887 96.437Z" fill="#1E3854"/>
<path d="M41.4798 48.4504C42.21 48.4637 42.21 48.4637 42.9549 48.4772C43.3268 48.4886 43.6987 48.5 44.0818 48.5117L43.592 50.9617H39.6737V55.3718H44.5716V57.3319C43.5308 57.3451 42.49 57.3546 41.4492 57.3625C40.8696 57.3682 40.29 57.3739 39.6928 57.3797C38.2043 57.3319 38.2043 57.3319 37.2247 56.8419C37.1851 55.6369 37.1559 54.4333 37.1329 53.228C37.1205 52.8857 37.1082 52.5433 37.0955 52.1906C37.0812 51.1952 37.0812 51.1952 37.2247 49.4917C38.9002 48.3742 39.5178 48.4042 41.4798 48.4504Z" fill="#263F5A"/>
<path d="M24.9791 48.5115H31.8362L31.3464 50.9615L26.9382 50.4715V51.9416H30.3668L30.8566 54.3916H26.9382L26.4484 56.8417H24.4893C24.4379 54.0065 24.4929 51.3079 24.9791 48.5115Z" fill="#29425C"/>
<path d="M17.1425 47.5312L23.5099 48.0213V49.9813H19.1017V51.4513H22.5303V53.4114H18.6119L18.1221 55.8615H16.163C16.0551 52.8944 16.4223 50.4133 17.1425 47.5312Z" fill="#1E3854"/>
<path d="M27.9182 81.3423H31.8366V88.6925H27.9182V81.3423Z" fill="#F7F7F7"/>
<path d="M59.7535 46.5508H61.7127C62.2699 48.6413 62.6923 50.2577 62.6923 52.4309L66.6107 51.9409L67.1005 53.901L61.2229 55.371C60.0336 52.5155 59.941 49.6007 59.7535 46.5508Z" fill="#1D3853"/>
<path d="M46.0398 48.5115H48.4888L48.9786 56.8417H46.5296L46.0398 48.5115Z" fill="#1E3854"/>
<path d="M33.3064 49.0005H35.2656V57.3307H32.8167L33.3064 49.0005Z" fill="#193450"/>
<path d="M9.79502 48.0215C10.7781 48.162 11.7584 48.3246 12.7338 48.5115L12.244 52.9216L8.81543 52.4316C9.244 48.5727 9.244 48.5727 9.79502 48.0215Z" fill="#E5E7EB"/>
<path d="M47.02 98.9827H50.4486V103.393C49.4692 103.414 48.4892 103.413 47.5098 103.393C47.02 102.903 47.02 102.903 46.9722 101.997C46.9881 100.992 47.0041 99.9876 47.02 98.9827Z" fill="#D3D7DC"/>
<path d="M43.1022 25.9697H48.0001V28.4198H43.1022V25.9697Z" fill="#7E7E7F"/>
<path d="M54.8561 25.9697H59.754V28.4198H56.3255V26.4597H55.3459L54.8561 28.4198V25.9697Z" fill="#6A6A6B"/>
<path d="M15.6727 25.9697H18.1217V26.9498H19.1013V25.9697H20.0809V28.4198H17.1421V26.4597H16.1625L16.6523 27.9298L15.6727 28.4198V25.9697Z" fill="#5D5D5E"/>
<path d="M29.3875 98.4932H32.3262L32.816 100.943H29.8772L29.3875 98.4932Z" fill="#CACFD5"/>
<path d="M12.2445 25.9697H15.1833V28.4198H12.2445V25.9697Z" fill="#595959"/>
<path d="M26.9379 25.9697H27.9175V27.9298H28.897V25.9697L30.8562 26.4597V28.4198H26.9379V25.9697Z" fill="#535354"/>
<path d="M52.8971 49.4907H55.8359V51.4508L52.8971 51.9408V49.4907Z" fill="#E9EBEE"/>
<path d="M50.9381 25.9697H54.3667V28.4198H50.9381V25.9697Z" fill="#5B5B5B"/>
<path d="M31.3464 25.9697H33.7954V28.4198H31.3464V25.9697Z" fill="#5D5D5E"/>
<path d="M23.0199 25.9697L25.4689 26.4597V28.4198H23.0199V25.9697Z" fill="#626263"/>
<path d="M20.5712 25.9697H22.5303V28.4198H20.5712V25.9697Z" fill="#505051"/>
<path d="M46.0398 25.9697H47.999V28.4198H46.0398V25.9697Z" fill="#484849"/>
<path d="M12.2445 25.9697L13.7139 26.4597V28.4198H12.2445V25.9697Z" fill="#79797A"/>
<path d="M43.1022 25.9697H44.0818V26.9498L45.0613 27.4398H44.0818V28.4198H43.1022V25.9697Z" fill="#5D5D5E"/>
<path d="M33.7963 25.9697V28.4198L32.3269 27.9298V26.4597C33.3065 25.9697 33.3065 25.9697 33.7963 25.9697Z" fill="#737374"/>
</svg>
